C:\Users\Nicos\Documents\OpenSimProjects\SprintingProject\Study1\PredictiveResults\IC_pred_Sprinting_optimum_27-October-2023__11-55-39_p02_maxVel_01___IKTD_Minus_2_GRF.mot
version=1
nRows=6
nColumns=127
inDegrees=yes
endheader
time	ground_force_vx	ground_force_vy	ground_force_vz	ground_force_px	ground_force_py	ground_force_pz	ground_torque_x	ground_torque_y	ground_torque_z	1_ground_force_vx	1_ground_force_vy	1_ground_force_vz	1_ground_force_px	1_ground_force_py	1_ground_force_pz	1_ground_torque_x	1_ground_torque_y	1_ground_torque_z	2_ground_force_vx	2_ground_force_vy	2_ground_force_vz	2_ground_force_px	2_ground_force_py	2_ground_force_pz	2_ground_torque_x	2_ground_torque_y	2_ground_torque_z	3_ground_force_vx	3_ground_force_vy	3_ground_force_vz	3_ground_force_px	3_ground_force_py	3_ground_force_pz	3_ground_torque_x	3_ground_torque_y	3_ground_torque_z	4_ground_force_vx	4_ground_force_vy	4_ground_force_vz	4_ground_force_px	4_ground_force_py	4_ground_force_pz	4_ground_torque_x	4_ground_torque_y	4_ground_torque_z	5_ground_force_vx	5_ground_force_vy	5_ground_force_vz	5_ground_force_px	5_ground_force_py	5_ground_force_pz	5_ground_torque_x	5_ground_torque_y	5_ground_torque_z	6_ground_force_vx	6_ground_force_vy	6_ground_force_vz	6_ground_force_px	6_ground_force_py	6_ground_force_pz	6_ground_torque_x	6_ground_torque_y	6_ground_torque_z	7_ground_force_vx	7_ground_force_vy	7_ground_force_vz	7_ground_force_px	7_ground_force_py	7_ground_force_pz	7_ground_torque_x	7_ground_torque_y	7_ground_torque_z	8_ground_force_vx	8_ground_force_vy	8_ground_force_vz	8_ground_force_px	8_ground_force_py	8_ground_force_pz	8_ground_torque_x	8_ground_torque_y	8_ground_torque_z	9_ground_force_vx	9_ground_force_vy	9_ground_force_vz	9_ground_force_px	9_ground_force_py	9_ground_force_pz	9_ground_torque_x	9_ground_torque_y	9_ground_torque_z	10_ground_force_vx	10_ground_force_vy	10_ground_force_vz	10_ground_force_px	10_ground_force_py	10_ground_force_pz	10_ground_torque_x	10_ground_torque_y	10_ground_torque_z	11_ground_force_vx	11_ground_force_vy	11_ground_force_vz	11_ground_force_px	11_ground_force_py	11_ground_force_pz	11_ground_torque_x	11_ground_torque_y	11_ground_torque_z	12_ground_force_vx	12_ground_force_vy	12_ground_force_vz	12_ground_force_px	12_ground_force_py	12_ground_force_pz	12_ground_torque_x	12_ground_torque_y	12_ground_torque_z	13_ground_force_vx	13_ground_force_vy	13_ground_force_vz	13_ground_force_px	13_ground_force_py	13_ground_force_pz	13_ground_torque_x	13_ground_torque_y	13_ground_torque_z
0.213140	-0.000000	0.000000	-0.000000	1.131442	0.200997	0.439690	0.000000	0.000000	0.000000	-0.000000	0.000000	-0.000000	1.155198	0.220414	0.459559	0.000000	0.000000	0.000000	-0.000000	0.000000	-0.000000	1.171508	0.229807	0.456455	0.000000	0.000000	0.000000	-0.000000	0.000000	-0.000000	1.167187	0.228373	0.434328	0.000000	0.000000	0.000000	-0.000000	0.000000	-0.000000	1.210949	0.268733	0.484882	0.000000	0.000000	0.000000	-0.000000	0.000000	-0.000000	1.183090	0.243340	0.450685	0.000000	0.000000	0.000000	-0.000000	0.000000	-0.000000	1.229417	0.297472	0.427607	0.000000	0.000000	0.000000	-0.000000	0.000000	0.000000	2.468672	0.095493	0.149965	0.000000	0.000000	0.000000	-0.000000	0.000000	0.000000	2.424448	0.099525	0.128836	0.000000	0.000000	0.000000	-0.000000	0.000000	0.000000	2.393605	0.097901	0.135771	0.000000	0.000000	0.000000	-0.000000	0.000000	0.000000	2.396897	0.092930	0.155939	0.000000	0.000000	0.000000	-0.000000	0.000000	0.000000	2.307931	0.105218	0.106262	0.000000	0.000000	0.000000	-0.000000	0.000000	0.000000	2.363921	0.096953	0.139681	0.000000	0.000000	0.000000	-0.000000	0.000000	0.000000	2.245187	0.093162	0.155322	0.000000	0.000000	0.000000
0.214622	-0.000000	0.000000	-0.000000	1.153086	0.202915	0.440268	0.000000	0.000000	0.000000	-0.000000	0.000000	-0.000000	1.176932	0.222329	0.460042	0.000000	0.000000	0.000000	-0.000000	0.000000	-0.000000	1.193246	0.231715	0.456877	0.000000	0.000000	0.000000	-0.000000	0.000000	-0.000000	1.188853	0.230277	0.434766	0.000000	0.000000	0.000000	-0.000000	0.000000	-0.000000	1.232833	0.270634	0.485141	0.000000	0.000000	0.000000	-0.000000	0.000000	-0.000000	1.204829	0.245242	0.451057	0.000000	0.000000	0.000000	-0.000000	0.000000	-0.000000	1.251164	0.299351	0.427779	0.000000	0.000000	0.000000	-0.000000	0.000000	0.000000	2.483964	0.093809	0.149192	0.000000	0.000000	0.000000	-0.000000	0.000000	0.000000	2.439713	0.098018	0.128260	0.000000	0.000000	0.000000	-0.000000	0.000000	0.000000	2.409175	0.096604	0.135092	0.000000	0.000000	0.000000	-0.000000	0.000000	0.000000	2.412473	0.091545	0.155174	0.000000	0.000000	0.000000	-0.000000	0.000000	0.000000	2.323491	0.104002	0.105695	0.000000	0.000000	0.000000	-0.000000	0.000000	0.000000	2.379492	0.095622	0.138979	0.000000	0.000000	0.000000	-0.000000	0.000000	0.000000	2.260763	0.091696	0.154527	0.000000	0.000000	0.000000
0.215269	-0.000000	0.000000	-0.000000	1.162595	0.203728	0.440526	0.000000	0.000000	0.000000	-0.000000	0.000000	-0.000000	1.186476	0.223142	0.460258	0.000000	0.000000	0.000000	-0.000000	0.000000	-0.000000	1.202790	0.232526	0.457066	0.000000	0.000000	0.000000	-0.000000	0.000000	-0.000000	1.198366	0.231086	0.434961	0.000000	0.000000	0.000000	-0.000000	0.000000	-0.000000	1.242433	0.271444	0.485257	0.000000	0.000000	0.000000	-0.000000	0.000000	-0.000000	1.214371	0.246051	0.451224	0.000000	0.000000	0.000000	-0.000000	0.000000	-0.000000	1.260697	0.300152	0.427856	0.000000	0.000000	0.000000	-0.000000	0.000000	0.000000	2.490520	0.093046	0.148847	0.000000	0.000000	0.000000	-0.000000	0.000000	0.000000	2.446256	0.097335	0.128004	0.000000	0.000000	0.000000	-0.000000	0.000000	0.000000	2.415853	0.096014	0.134794	0.000000	0.000000	0.000000	-0.000000	0.000000	0.000000	2.419155	0.090918	0.154836	0.000000	0.000000	0.000000	-0.000000	0.000000	0.000000	2.330165	0.103453	0.105450	0.000000	0.000000	0.000000	-0.000000	0.000000	0.000000	2.386172	0.095020	0.138672	0.000000	0.000000	0.000000	-0.000000	0.000000	0.000000	2.267445	0.091042	0.154184	0.000000	0.000000	0.000000
0.217314	-0.000000	0.000000	-0.000000	1.192858	0.206201	0.441366	0.000000	0.000000	0.000000	-0.000000	0.000000	-0.000000	1.216838	0.225619	0.460960	0.000000	0.000000	0.000000	-0.000000	0.000000	-0.000000	1.233143	0.234998	0.457682	0.000000	0.000000	0.000000	-0.000000	0.000000	-0.000000	1.228621	0.233550	0.435599	0.000000	0.000000	0.000000	-0.000000	0.000000	-0.000000	1.272931	0.273923	0.485632	0.000000	0.000000	0.000000	-0.000000	0.000000	-0.000000	1.244706	0.248520	0.451766	0.000000	0.000000	0.000000	-0.000000	0.000000	-0.000000	1.290956	0.302605	0.428103	0.000000	0.000000	0.000000	-0.000000	0.000000	0.000000	2.510753	0.090522	0.147729	0.000000	0.000000	0.000000	-0.000000	0.000000	0.000000	2.466458	0.095075	0.127181	0.000000	0.000000	0.000000	-0.000000	0.000000	0.000000	2.436482	0.094054	0.133846	0.000000	0.000000	0.000000	-0.000000	0.000000	0.000000	2.439791	0.088836	0.153762	0.000000	0.000000	0.000000	-0.000000	0.000000	0.000000	2.350782	0.101647	0.104696	0.000000	0.000000	0.000000	-0.000000	0.000000	0.000000	2.406801	0.093027	0.137703	0.000000	0.000000	0.000000	-0.000000	0.000000	0.000000	2.288081	0.088921	0.153131	0.000000	0.000000	0.000000
0.218796	-0.000000	0.000000	-0.000000	1.214999	0.207901	0.441997	0.000000	0.000000	0.000000	-0.000000	0.000000	-0.000000	1.239036	0.227327	0.461487	0.000000	0.000000	0.000000	-0.000000	0.000000	-0.000000	1.255327	0.236706	0.458145	0.000000	0.000000	0.000000	-0.000000	0.000000	-0.000000	1.250734	0.235250	0.436079	0.000000	0.000000	0.000000	-0.000000	0.000000	-0.000000	1.295191	0.275644	0.485914	0.000000	0.000000	0.000000	-0.000000	0.000000	-0.000000	1.266865	0.250227	0.452173	0.000000	0.000000	0.000000	-0.000000	0.000000	-0.000000	1.313019	0.304309	0.428289	0.000000	0.000000	0.000000	-0.000000	0.000000	0.000000	2.524979	0.088590	0.146902	0.000000	0.000000	0.000000	-0.000000	0.000000	0.000000	2.480664	0.093342	0.126577	0.000000	0.000000	0.000000	-0.000000	0.000000	0.000000	2.450992	0.092536	0.133162	0.000000	0.000000	0.000000	-0.000000	0.000000	0.000000	2.454306	0.087232	0.152984	0.000000	0.000000	0.000000	-0.000000	0.000000	0.000000	2.365286	0.100266	0.104173	0.000000	0.000000	0.000000	-0.000000	0.000000	0.000000	2.421313	0.091496	0.137010	0.000000	0.000000	0.000000	-0.000000	0.000000	0.000000	2.302595	0.087334	0.152403	0.000000	0.000000	0.000000
0.219443	-0.000000	0.000000	-0.000000	1.224722	0.208618	0.442278	0.000000	0.000000	0.000000	-0.000000	0.000000	-0.000000	1.248780	0.228050	0.461723	0.000000	0.000000	0.000000	-0.000000	0.000000	-0.000000	1.265063	0.237430	0.458352	0.000000	0.000000	0.000000	-0.000000	0.000000	-0.000000	1.260439	0.235970	0.436293	0.000000	0.000000	0.000000	-0.000000	0.000000	-0.000000	1.304952	0.276376	0.486040	0.000000	0.000000	0.000000	-0.000000	0.000000	-0.000000	1.276588	0.250951	0.452356	0.000000	0.000000	0.000000	-0.000000	0.000000	-0.000000	1.322687	0.305033	0.428372	0.000000	0.000000	0.000000	-0.000000	0.000000	0.000000	2.531079	0.087719	0.146539	0.000000	0.000000	0.000000	-0.000000	0.000000	0.000000	2.486757	0.092560	0.126313	0.000000	0.000000	0.000000	-0.000000	0.000000	0.000000	2.457215	0.091847	0.132866	0.000000	0.000000	0.000000	-0.000000	0.000000	0.000000	2.460531	0.086505	0.152648	0.000000	0.000000	0.000000	-0.000000	0.000000	0.000000	2.371507	0.099642	0.103953	0.000000	0.000000	0.000000	-0.000000	0.000000	0.000000	2.427536	0.090803	0.136712	0.000000	0.000000	0.000000	-0.000000	0.000000	0.000000	2.308820	0.086627	0.152097	0.000000	0.000000	0.000000
